<?xml version="1.0" encoding="UTF-8" standalone="no"?>
<svg
   width="98"
   height="98"
   viewBox="0 0 98 98"
   fill="none"
   version="1.1"
   id="svg52"
   sodipodi:docname="icon2.svg"
   inkscape:version="1.2.2 (732a01da63, 2022-12-09)"
   xmlns:inkscape="http://www.inkscape.org/namespaces/inkscape"
   xmlns:sodipodi="http://sodipodi.sourceforge.net/DTD/sodipodi-0.dtd"
   xmlns="http://www.w3.org/2000/svg"
   xmlns:svg="http://www.w3.org/2000/svg">
  <sodipodi:namedview
     id="namedview54"
     pagecolor="#ffffff"
     bordercolor="#000000"
     borderopacity="0.25"
     inkscape:showpageshadow="2"
     inkscape:pageopacity="0.0"
     inkscape:pagecheckerboard="0"
     inkscape:deskcolor="#d1d1d1"
     showgrid="false"
     inkscape:zoom="5.6451613"
     inkscape:cx="49.068571"
     inkscape:cy="46.411429"
     inkscape:window-width="1366"
     inkscape:window-height="705"
     inkscape:window-x="-8"
     inkscape:window-y="-8"
     inkscape:window-maximized="1"
     inkscape:current-layer="svg52" />
  <g
     clip-path="url(#clip0_332_2)"
     id="g45">
    <path
       d="M 46.5,92 C 71.629,92 92,71.629 92,46.5 92,21.371 71.629,1 46.5,1 21.371,1 1,21.371 1,46.5 1,71.629 21.371,92 46.5,92 Z"
       fill="#ffffff"
       stroke="#000000"
       stroke-width="2"
       id="path29" />
    <path
       d="m 61,48 c 1.6569,0 3,-3.5817 3,-8 0,-4.4183 -1.3431,-8 -3,-8 -1.6569,0 -3,3.5817 -3,8 0,4.4183 1.3431,8 3,8 z"
       fill="#000000"
       id="path31" />
    <path
       d="m 61,48 c 1.6569,0 3,-3.5817 3,-8 0,-4.4183 -1.3431,-8 -3,-8 -1.6569,0 -3,3.5817 -3,8 0,4.4183 1.3431,8 3,8 z"
       fill="#000000"
       id="path33" />
    <path
       d="m 61,48 c 1.6569,0 3,-3.5817 3,-8 0,-4.4183 -1.3431,-8 -3,-8 -1.6569,0 -3,3.5817 -3,8 0,4.4183 1.3431,8 3,8 z"
       fill="#000000"
       id="path35" />
    <path
       d="m 78,48 c 1.6569,0 3,-3.5817 3,-8 0,-4.4183 -1.3431,-8 -3,-8 -1.6569,0 -3,3.5817 -3,8 0,4.4183 1.3431,8 3,8 z"
       fill="#000000"
       id="path37" />
    <path
       d="m 78,48 c 1.6569,0 3,-3.5817 3,-8 0,-4.4183 -1.3431,-8 -3,-8 -1.6569,0 -3,3.5817 -3,8 0,4.4183 1.3431,8 3,8 z"
       fill="#000000"
       id="path39" />
    <path
       d="m 78,48 c 1.6569,0 3,-3.5817 3,-8 0,-4.4183 -1.3431,-8 -3,-8 -1.6569,0 -3,3.5817 -3,8 0,4.4183 1.3431,8 3,8 z"
       fill="#000000"
       id="path41" />
    <path
       d="m 46,67 c 16,9 35.5,7.5 50,-4.5"
       stroke="#000000"
       stroke-width="3"
       stroke-linecap="round"
       id="path43" />
  </g>
  <defs
     id="defs50">
    <clipPath
       id="clip0_332_2">
      <rect
         width="98"
         height="93"
         fill="#ffffff"
         id="rect47"
         x="0"
         y="0" />
    </clipPath>
  </defs>
</svg>
